<svg width="312" height="66" viewBox="0 0 312 66" fill="none" xmlns="http://www.w3.org/2000/svg">
<path d="M2.27183 12.3037C4.26268 7.54337 5.37812 3.51176 10.1998 1.46667C15.3236 0.671112 21.7055 0 26.9554 0C46.2933 0 65.7622 0.733333 85.169 0.733333C92.8025 0.733333 100.407 1.72497 108.035 1.83333C113.093 1.9052 118.106 2.56667 123.178 2.56667C131.356 2.56667 139.519 2.2 147.693 2.2C160.923 2.2 174.168 1.98537 187.389 2.48519C223.116 3.8358 258.471 0.733333 294.146 0.733333C296.751 0.733333 300.137 0.0550939 302.673 0.916667C306.062 2.06752 308.363 3.53235 309.964 7.17037C312.893 13.8253 311.801 22.3268 311.801 29.4963C311.801 35.0414 311.761 40.7586 311.089 46.2407C308.269 69.2264 268.879 62.2531 254.562 63.8C236.932 65.705 218.608 66 200.884 66C141.571 66 82.2327 64.5333 22.9446 64.5333C17.6319 64.5333 8.82444 62.5603 4.6521 58.85C3.14856 57.513 2.44051 55.4239 2.44051 53.3704C2.44051 40.1738 -2.93632 24.7569 2.27183 12.3037Z" fill="#FF0554"/>
</svg>
