<svg width="324" height="70" viewBox="0 0 324 70" fill="none" xmlns="http://www.w3.org/2000/svg">
<path d="M4.33005 14.3037C6.37194 9.54337 7.51599 5.51176 12.4613 3.46667C17.7165 2.67111 24.262 2 29.6466 2C49.4803 2 69.4484 2.73333 89.3528 2.73333C97.182 2.73333 104.982 3.72497 112.805 3.83333C117.993 3.9052 123.134 4.56667 128.337 4.56667C136.724 4.56667 145.097 4.2 153.48 4.2C167.05 4.2 180.634 3.98537 194.194 4.48519C230.837 5.8358 267.098 2.73333 303.688 2.73333C306.36 2.73333 309.832 2.05509 312.434 2.91667C315.909 4.06752 318.27 5.53235 319.912 9.17037C322.915 15.8253 321.796 24.3268 321.796 31.4963C321.796 37.0414 321.755 42.7586 321.065 48.2407C318.173 71.2264 277.773 64.2531 263.089 65.8C245.007 67.705 226.213 68 208.035 68C147.201 68 86.3411 66.5333 25.5329 66.5333C20.0839 66.5333 11.0507 64.5603 6.77135 60.85C5.22926 59.513 4.50305 57.4239 4.50305 55.3704C4.50305 42.1738 -1.01164 26.7569 4.33005 14.3037Z" fill="white" stroke="black" stroke-width="3" stroke-linecap="round"/>
</svg>
